Coordinates
version=1
nRows=22
nColumns=24
inDegrees=yes

Units are S.I. units (second, meters, Newtons, ...)
Angles are in degrees.

endheader
time	pelvis_tilt	pelvis_list	pelvis_rotation	pelvis_tx	pelvis_ty	pelvis_tz	hip_flexion_r	hip_adduction_r	hip_rotation_r	knee_angle_r	ankle_angle_r	subtalar_angle_r	mtp_angle_r	hip_flexion_l	hip_adduction_l	hip_rotation_l	knee_angle_l	ankle_angle_l	subtalar_angle_l	mtp_angle_l	lumbar_extension	lumbar_bending	lumbar_rotation
      5.30000000	     -3.04835518	      3.80029060	     20.93718495	     -1.81987177	      0.64608028	      0.17455560	     25.03622794	     -9.19950539	     -6.36181389	     -3.80494046	     -5.15031600	    -18.21811212	      0.00000000	    -17.69709133	     -1.85819533	     11.96627521	    -20.84713022	      8.04677222	      4.78395373	      0.00000000	    -19.19815050	     -4.22517845	    -21.09182039
      5.31000000	     -2.93201058	      2.82847307	     20.27603158	     -1.80215619	      0.64589559	      0.17615765	     25.47819089	     -7.50780060	     -4.57297151	     -6.46979062	     -8.01829098	    -21.04308173	      0.00000000	    -16.19280559	     -2.75500099	     10.13235074	    -25.00664291	      3.42552700	      3.39389382	      0.00000000	    -18.60396715	     -3.41496321	    -20.21481127
      5.32000000	     -2.55630309	      1.60600140	     19.44127234	     -1.78496874	      0.64641829	      0.17783329	     25.77990159	     -5.39893517	     -3.16477766	     -9.30505622	     -9.73721462	    -22.87056121	      0.00000000	    -14.57913288	     -3.91416116	      8.19264895	    -29.31533387	     -2.04774743	      1.04800245	      0.00000000	    -18.39380012	     -2.20651907	    -19.12805906
      5.33000000	     -2.18820180	      0.20064454	     18.47345238	     -1.76834527	      0.64736283	      0.17948749	     26.06859027	     -3.03163397	     -1.96671164	    -12.11920980	     -9.70506773	    -23.91642242	      0.00000000	    -12.63462572	     -5.17123202	      6.38254800	    -33.77443831	     -7.85434175	     -2.26343396	      0.00000000	    -18.31201357	     -0.77470055	    -17.86523184
      5.34000000	     -1.86826179	     -1.25504331	     17.48677671	     -1.75230109	      0.64870915	      0.18098639	     26.09555393	     -0.59795219	     -0.97596257	    -14.42195104	     -8.87137849	    -24.60963084	      0.00000000	    -10.38494430	     -6.39835482	      4.90458242	    -38.33063985	    -13.50025585	     -6.54018285	      0.00000000	    -18.37038214	      0.74735239	    -16.62707930
      5.35000000	     -1.67764864	     -2.69004912	     16.56486510	     -1.73678821	      0.65036203	      0.18229438	     25.78246493	      1.75610294	     -0.18816029	    -15.92141057	     -7.47454741	    -24.97459139	      0.00000000	     -7.78879251	     -7.51706204	      3.84032702	    -42.92045219	    -18.32461348	    -11.38106828	      0.00000000	    -18.45876634	      2.24542622	    -15.47425230
      5.36000000	     -1.65321156	     -4.00361082	     15.75495992	     -1.72174498	      0.65230574	      0.18342496	     25.06403940	      3.87395031	      0.42216044	    -16.43201946	     -5.86712041	    -25.07399249	      0.00000000	     -4.87770392	     -8.40610713	      3.22484368	    -47.39932642	    -21.91339348	    -16.48102470	      0.00000000	    -18.50829149	      3.58006528	    -14.41172281
      5.37000000	     -1.79079865	     -5.07094685	     15.05636196	     -1.70708943	      0.65459211	      0.18441468	     23.92682927	      5.59954935	      0.85453943	    -15.97073379	     -4.33808874	    -24.87691547	      0.00000000	     -1.76573674	     -8.90939355	      3.02446908	    -51.53964922	    -24.13272422	    -21.59226923	      0.00000000	    -18.49734497	      4.59906364	    -13.47398956
      5.38000000	     -2.07498364	     -5.75733273	     14.38453996	     -1.69271434	      0.65728289	      0.18533781	     22.40807864	      6.80947594	      1.14379083	    -14.70070600	     -2.82277039	    -24.20193660	      0.00000000	      1.39080468	     -8.84519487	      3.13641381	    -55.11905403	    -25.13358483	    -26.39173643	      0.00000000	    -18.42601858	      5.12574327	    -12.51961906
      5.39000000	     -2.50911806	     -6.03364924	     13.69625471	     -1.67855254	      0.66034367	      0.18620087	     20.61729726	      7.46889021	      1.24742730	    -12.83001853	     -1.37432208	    -22.83896335	      0.00000000	      4.52994282	     -8.18283636	      3.43045969	    -58.02890824	    -24.90325220	    -30.49669732	      0.00000000	    -18.24642118	      5.13743745	    -11.64483383
      5.40000000	     -3.07918585	     -5.88678003	     12.87315711	     -1.66449871	      0.66370652	      0.18706880	     18.67529920	      7.60518056	      1.15033578	    -10.62198527	      0.22489989	    -20.56660305	      0.00000000	      7.56398284	     -6.95240973	      3.69956679	    -60.19697178	    -23.56291894	    -33.50990620	      0.00000000	    -17.94125584	      4.60379019	    -10.74075144
      5.41000000	     -3.69124007	     -5.42818063	     11.89043826	     -1.65047349	      0.66725317	      0.18795145	     16.60337962	      7.37922047	      0.89476362	     -8.22447987	      1.82531672	    -17.61244603	      0.00000000	     10.42205519	     -5.37314618	      3.83204296	    -61.66201896	    -21.15058431	    -35.08319549	      0.00000000	    -17.55631492	      3.68407624	     -9.78250278
      5.42000000	     -4.32757274	     -4.71570113	     10.66074629	     -1.63641310	      0.67077150	      0.18893128	     14.47518508	      6.90073203	      0.75717350	     -5.75916773	      3.15890598	    -14.51220758	      0.00000000	     13.08884349	     -3.59685655	      3.70055715	    -62.45518075	    -18.22836664	    -35.62613635	      0.00000000	    -17.06109590	      2.44002984	     -8.68208128
      5.43000000	     -4.93485318	     -3.82221442	      9.21335034	     -1.62232794	      0.67409448	      0.18997922	     12.35321482	      6.24264207	      0.72192005	     -3.36303388	      4.20343454	    -11.37649378	      0.00000000	     15.56591603	     -1.78586190	      3.29421227	    -62.64741233	    -15.16730638	    -35.38483304	      0.00000000	    -16.49212055	      0.98621837	     -7.45072154
      5.44000000	     -5.45567263	     -2.87241934	      7.58723907	     -1.60822120	      0.67702991	      0.19111403	     10.26266768	      5.53560976	      0.93785851	     -1.12072607	      4.99237972	     -8.52158658	      0.00000000	     17.86900905	     -0.15553173	      2.62277400	    -62.35180346	    -12.18094744	    -34.61432110	      0.00000000	    -15.88649078	     -0.49780360	     -6.13188999
      5.45000000	     -5.84707371	     -1.94492511	      5.83072988	     -1.59414330	      0.67945348	      0.19230560	      8.23952660	      4.84196986	      1.46912497	      0.85990273	      5.54404891	     -6.19079527	      0.00000000	     19.99461627	      1.17781626	      1.72591277	    -61.64625698	     -9.48151936	    -33.62513743	      0.00000000	    -15.30442893	     -1.89311474	     -4.73512650
      5.46000000	     -6.09478431	     -1.12214634	      3.99237616	     -1.58014245	      0.68128000	      0.19352077	      6.32016797	      4.22592519	      2.31223871	      2.50063611	      5.94260378	     -4.47747805	      0.00000000	     21.95021447	      2.12333058	      0.66337009	    -60.59835108	     -7.14675460	    -32.58830666	      0.00000000	    -14.79915575	     -3.08924234	     -3.29871025
      5.47000000	     -6.19407041	     -0.46569962	      2.12458381	     -1.56626139	      0.68247448	      0.19468808	      4.51746961	      3.73277997	      3.43752977	      3.75853131	      6.32582408	     -3.42759994	      0.00000000	     23.72390492	      2.65142041	     -0.48034816	    -59.24673012	     -5.17743054	    -31.64104827	      0.00000000	    -14.42655778	     -3.99453677	     -1.85811589
      5.48000000	     -6.15466354	     -0.01603499	      0.26004964	     -1.55250703	      0.68305854	      0.19580872	      2.82577889	      3.40581979	      4.77888831	      4.62468976	      6.78652589	     -2.95327424	      0.00000000	     25.29762613	      2.75321365	     -1.63997425	    -57.60267041	     -3.55022640	    -30.78526556	      0.00000000	    -14.22511321	     -4.58984030	     -0.48469892
      5.49000000	     -5.99842929	      0.21059973	     -1.57986786	     -1.53889527	      0.68307360	      0.19682330	      1.23383228	      3.26225818	      6.18848726	      5.13181466	      7.29723832	     -2.99084404	      0.00000000	     26.65709077	      2.47099498	     -2.73914948	    -55.66120405	     -2.12984693	    -29.97537696	      0.00000000	    -14.21952333	     -4.85702833	      0.88898966
      5.50000000	     -5.75169983	      0.22625635	     -3.38427851	     -1.52539303	      0.68260001	      0.19777563	     -0.29513233	      3.30080749	      7.59545643	      5.34415471	      7.94767464	     -3.37350718	      0.00000000	     27.77907049	      1.85192502	     -3.74856534	    -53.37476581	     -0.96220257	    -29.21781049	      0.00000000	    -14.40104430	     -4.86203837	      2.20342156
      5.51000000	     -5.44130178	      0.02431675	     -5.10678007	     -1.51194942	      0.68170145	      0.19864454	     -1.83405634	      3.51989709	      9.01585543	      5.39053813	      8.65508041	     -4.11357256	      0.00000000	     28.65727900	      0.94406735	     -4.60429889	    -50.72894235	      0.10355798	    -28.32601297	      0.00000000	    -14.74138226	     -4.61010106	      3.41486585
